<svg width="747" height="666" viewBox="0 0 747 666" fill="none" xmlns="http://www.w3.org/2000/svg">
<g clip-path="url(#clip0_62_17)">
<path d="M0 0H747V666H0V0Z" fill="#CCF381"/>
</g>
<g clip-path="url(#clip1_62_17)">
<path d="M0 666L0 -8.34463e-07L590 -8.34463e-07L590 666L0 666Z" fill="url(#paint0_linear_62_17)"/>
</g>
<path d="M218.94 153.909H287.418V421.864C287.294 446.426 282.083 467.577 271.787 485.317C261.491 502.932 247.1 516.516 228.616 526.068C210.257 535.496 188.857 540.21 164.419 540.21C142.089 540.21 121.993 536.241 104.129 528.301C86.3897 520.238 72.3097 508.329 61.8892 492.574C51.4688 476.819 46.2585 457.219 46.2585 433.773H114.922C115.046 444.069 117.279 452.939 121.621 460.382C126.087 467.825 132.227 473.532 140.043 477.501C147.858 481.471 156.852 483.456 167.024 483.456C178.065 483.456 187.431 481.161 195.122 476.571C202.813 471.857 208.644 464.91 212.614 455.73C216.707 446.55 218.816 435.261 218.94 421.864V153.909ZM688.512 282.49H618.918C616.933 271.077 613.274 260.967 607.94 252.159C602.605 243.227 595.969 235.66 588.029 229.457C580.09 223.255 571.034 218.603 560.862 215.501C550.813 212.276 539.959 210.663 528.298 210.663C507.581 210.663 489.221 215.874 473.218 226.294C457.215 236.59 444.686 251.725 435.63 271.697C426.574 291.546 422.046 315.798 422.046 344.455C422.046 373.607 426.574 398.17 435.63 418.142C444.81 437.991 457.339 453.001 473.218 463.173C489.221 473.222 507.519 478.246 528.112 478.246C539.524 478.246 550.193 476.757 560.117 473.78C570.165 470.679 579.159 466.151 587.099 460.196C595.162 454.241 601.923 446.922 607.381 438.239C612.964 429.555 616.809 419.631 618.918 408.466L688.512 408.838C685.907 426.95 680.263 443.945 671.579 459.824C663.019 475.703 651.792 489.721 637.898 501.878C624.005 513.911 607.754 523.339 589.146 530.162C570.538 536.861 549.883 540.21 527.181 540.21C493.687 540.21 463.79 532.457 437.491 516.95C411.192 501.444 390.475 479.052 375.34 449.776C360.206 420.499 352.638 385.392 352.638 344.455C352.638 303.393 360.268 268.286 375.526 239.134C390.785 209.857 411.564 187.465 437.863 171.959C464.162 156.452 493.935 148.699 527.181 148.699C548.394 148.699 568.119 151.676 586.354 157.631C604.59 163.585 620.841 172.331 635.107 183.868C649.373 195.281 661.096 209.299 670.276 225.922C679.58 242.421 685.659 261.277 688.512 282.49Z" fill="black"/>
<defs>
<linearGradient id="paint0_linear_62_17" x1="0" y1="333" x2="590" y2="333" gradientUnits="userSpaceOnUse">
<stop offset="0.00520833" stop-color="#4831D4"/>
<stop offset="1" stop-color="#4831D4" stop-opacity="0"/>
</linearGradient>
<clipPath id="clip0_62_17">
<rect width="747" height="666" rx="36" fill="white"/>
</clipPath>
<clipPath id="clip1_62_17">
<rect y="666" width="666" height="590" rx="36" transform="rotate(-90 0 666)" fill="white"/>
</clipPath>
</defs>
</svg>
