<svg width="500" height="500" viewBox="0 0 500 500" fill="none" xmlns="http://www.w3.org/2000/svg">
<g clip-path="url(#clip0_52_2)">
<path d="M500 0H0V500H500V0Z" fill="#4831D4"/>
<path d="M69.269 434.095H84.241L440.522 433.348C446.417 422.416 437.934 406.965 425.256 405.543C429.815 374.815 429.795 343.457 425.195 312.736C424.091 305.363 422.549 297.649 417.579 291.953C412.608 286.256 403.107 283.576 397.023 288.156C392.977 291.202 390.48 297.079 385.351 297.209C380.018 297.344 377.307 291.179 376.095 286.162C361.929 227.482 353.343 166.963 328.721 111.6C319.181 90.151 305.663 68.206 283.307 59.33C265.985 52.453 245.856 54.767 228.695 62.011C197.219 75.298 174.791 103.751 161.877 134.492C148.963 165.233 144.356 198.528 139.484 231.367C138.024 241.207 136.317 251.538 129.954 259.351C123.591 267.164 110.931 271.13 102.768 265.075C93.399 258.126 93.396 241.482 81.989 238.514C76.263 237.024 70.105 240.249 66.617 244.88C63.129 249.512 61.763 255.285 60.629 260.906C49.855 314.301 52.957 370.254 69.572 422.234C70.79 426.046 69.763 430.098 69.269 434.095Z" fill="#A39696"/>
<path d="M351.619 434.445H309.84L305.649 362.651H355.81L351.619 434.445Z" fill="#4831D4"/>
<path d="M352.84 338.522H308.619L304.182 362.651H357.277L352.84 338.522Z" fill="#4831D4"/>
<path d="M359.11 361.623H302.349V366.243H359.11V361.623Z" fill="#4831D4"/>
<path d="M358.282 366.586H302.982L302.095 366.419C301.824 366.364 301.649 366.101 301.703 365.83C301.758 365.559 302.027 365.383 302.292 365.438L303.08 365.595L358.281 365.585C358.557 365.585 358.781 365.809 358.781 366.085C358.782 366.363 358.558 366.586 358.282 366.586Z" fill="#072D2D"/>
<path d="M340.784 357.411H320.78C317.291 357.411 314.453 354.572 314.453 351.083V339.113C314.453 338.837 314.677 338.613 314.953 338.613C315.229 338.613 315.453 338.837 315.453 339.113V351.083C315.453 354.021 317.843 356.411 320.78 356.411H340.784C343.722 356.411 346.112 354.02 346.112 351.083V339.113C346.112 338.837 346.336 338.613 346.612 338.613C346.888 338.613 347.112 338.837 347.112 339.113V351.083C347.112 354.573 344.273 357.411 340.784 357.411Z" fill="#072D2D"/>
<path d="M298.302 282.163H222.423V433.92H298.302V282.163Z" fill="#F9F3EF"/>
<path d="M295.374 331.561H225.352C225.076 331.561 224.852 331.337 224.852 331.061V285.091C224.852 284.815 225.076 284.591 225.352 284.591H295.374C295.65 284.591 295.874 284.815 295.874 285.091V331.061C295.874 331.337 295.65 331.561 295.374 331.561ZM225.851 330.561H294.873V285.591H225.851V330.561Z" fill="#A39696"/>
<path d="M295.374 381.227H225.352C225.076 381.227 224.852 381.003 224.852 380.727V334.756C224.852 334.48 225.076 334.256 225.352 334.256H295.374C295.65 334.256 295.874 334.48 295.874 334.756V380.727C295.874 381.003 295.65 381.227 295.374 381.227ZM225.851 380.227H294.873V335.256H225.851V380.227Z" fill="#A39696"/>
<path d="M295.374 430.893H225.352C225.076 430.893 224.852 430.669 224.852 430.393V384.422C224.852 384.146 225.076 383.922 225.352 383.922H295.374C295.65 383.922 295.874 384.146 295.874 384.422V430.393C295.874 430.669 295.65 430.893 295.374 430.893ZM225.851 429.893H294.873V384.922H225.851V429.893Z" fill="#A39696"/>
<path d="M365.379 433.988C364.306 433.988 363.381 433.323 363.035 432.247L302.237 243.036L304.141 242.424L364.939 431.636C365.057 432.004 365.347 432.01 365.512 431.975C365.675 431.944 365.945 431.833 365.917 431.447L352.52 242.989L354.514 242.847L367.911 431.305C368.005 432.608 367.174 433.692 365.891 433.94C365.719 433.972 365.547 433.988 365.379 433.988Z" fill="#072D2D"/>
<path d="M238.753 433.988C238.584 433.988 238.413 433.971 238.239 433.938C236.956 433.689 236.127 432.606 236.221 431.302L249.618 242.845L251.613 242.987L238.217 431.445C238.189 431.832 238.458 431.942 238.621 431.973C238.783 432.008 239.076 432.003 239.194 431.634L299.992 242.422L301.896 243.034L241.098 432.245C240.752 433.323 239.826 433.988 238.753 433.988Z" fill="#072D2D"/>
<path d="M379.311 240.48H230.3V244.978H379.311V240.48Z" fill="#CCF381"/>
<path d="M313.993 164.588H272.874C269.524 164.588 266.807 161.872 266.807 158.521V148.073C266.807 144.722 269.523 142.006 272.874 142.006H313.993C317.344 142.006 320.06 144.722 320.06 148.073V158.521C320.06 161.872 317.344 164.588 313.993 164.588Z" fill="#072D2D"/>
<path d="M319.723 157.51H278.604C275.253 157.51 272.537 154.794 272.537 151.443V140.995C272.537 137.644 275.253 134.928 278.604 134.928H319.723C323.074 134.928 325.79 137.644 325.79 140.995V151.443C325.79 154.794 323.074 157.51 319.723 157.51Z" fill="#CCF381"/>
<path d="M325.453 150.432H284.334C280.983 150.432 278.267 147.716 278.267 144.365V133.917C278.267 130.566 280.983 127.85 284.334 127.85H325.453C328.803 127.85 331.52 130.566 331.52 133.917V144.365C331.519 147.716 328.803 150.432 325.453 150.432Z" fill="#4831D4"/>
<path d="M322.88 134.969H286.231C285.955 134.969 285.731 134.745 285.731 134.469C285.731 134.193 285.955 133.969 286.231 133.969H322.88C323.156 133.969 323.38 134.193 323.38 134.469C323.38 134.745 323.157 134.969 322.88 134.969Z" fill="#F9F3EF"/>
<path d="M322.88 139.871H286.231C285.955 139.871 285.731 139.647 285.731 139.371C285.731 139.095 285.955 138.871 286.231 138.871H322.88C323.156 138.871 323.38 139.095 323.38 139.371C323.38 139.647 323.157 139.871 322.88 139.871Z" fill="#F9F3EF"/>
<path d="M322.88 144.773H286.231C285.955 144.773 285.731 144.549 285.731 144.273C285.731 143.997 285.955 143.773 286.231 143.773H322.88C323.156 143.773 323.38 143.997 323.38 144.273C323.38 144.55 323.157 144.773 322.88 144.773Z" fill="#F9F3EF"/>
<path d="M303.754 101.233H275.443V121.792H303.754V101.233Z" fill="#4831D4"/>
<path d="M302.367 120.627C302.243 120.627 302.12 120.582 302.023 120.49L289.599 108.704L277.174 120.49C276.975 120.679 276.657 120.672 276.468 120.471C276.278 120.27 276.285 119.954 276.487 119.764L289.255 107.652C289.446 107.469 289.751 107.469 289.943 107.652L302.711 119.764C302.912 119.954 302.92 120.27 302.729 120.471C302.632 120.575 302.499 120.627 302.367 120.627Z" fill="#072D2D"/>
<path d="M302.367 102.941L289.599 115.053L276.831 102.941" fill="#4831D4"/>
<path d="M289.599 115.553C289.475 115.553 289.351 115.507 289.255 115.416L276.487 103.304C276.286 103.114 276.278 102.798 276.468 102.597C276.658 102.397 276.975 102.389 277.174 102.578L289.599 114.364L302.023 102.578C302.222 102.388 302.54 102.395 302.729 102.597C302.919 102.798 302.912 103.114 302.711 103.304L289.943 115.416C289.847 115.508 289.723 115.553 289.599 115.553Z" fill="#072D2D"/>
<path d="M417.448 172.864C417.448 176.555 414.456 179.546 410.766 179.546H357.308C353.618 179.546 350.626 176.554 350.626 172.864C350.626 169.173 353.618 166.182 357.308 166.182H410.766C414.457 166.182 417.448 169.173 417.448 172.864Z" fill="#4831D4"/>
<path d="M408.093 167.072C408.093 170.763 405.101 173.754 401.411 173.754H347.953C344.263 173.754 341.271 170.762 341.271 167.072C341.271 163.382 344.263 160.39 347.953 160.39H401.411C405.102 160.39 408.093 163.382 408.093 167.072Z" fill="#F9F3EF"/>
<path d="M351.92 167.055C351.92 168.939 350.393 170.466 348.509 170.466C346.625 170.466 345.098 168.939 345.098 167.055C345.098 165.171 346.625 163.644 348.509 163.644C350.393 163.644 351.92 165.171 351.92 167.055Z" fill="#4831D4"/>
<path d="M397.447 170.179H355.331C355.055 170.179 354.831 169.955 354.831 169.679C354.831 169.403 355.055 169.179 355.331 169.179H397.447C397.723 169.179 397.947 169.403 397.947 169.679C397.947 169.955 397.723 170.179 397.447 170.179Z" fill="#4831D4"/>
<path d="M314.01 170.204H277.61V184.865H314.01V170.204Z" fill="#072D2D"/>
<path d="M280.896 173.49V188.151H314.251L317.296 191.196V173.49H280.896Z" fill="#F9F3EF"/>
<path d="M373.134 154.711C383.518 154.711 391.936 146.293 391.936 135.909C391.936 125.525 383.518 117.107 373.134 117.107C362.75 117.107 354.332 125.525 354.332 135.909C354.332 146.293 362.75 154.711 373.134 154.711Z" fill="#072D2D"/>
<path d="M375.819 123.513H370.268V138.96H375.819V123.513Z" fill="#4831D4"/>
<path d="M373.043 149.098C375.009 149.098 376.603 147.504 376.603 145.538C376.603 143.572 375.009 141.978 373.043 141.978C371.077 141.978 369.483 143.572 369.483 145.538C369.483 147.504 371.077 149.098 373.043 149.098Z" fill="#4831D4"/>
<path d="M355.728 90.1949H311.156V121.969H341.774V127.957L346.141 121.969H355.728V90.1949Z" fill="#F9F3EF"/>
<path d="M348.378 99.199H317.37C317.094 99.199 316.87 98.975 316.87 98.699C316.87 98.423 317.094 98.199 317.37 98.199H348.378C348.654 98.199 348.878 98.423 348.878 98.699C348.878 98.975 348.654 99.199 348.378 99.199Z" fill="#072D2D"/>
<path d="M348.378 106.025H317.37C317.094 106.025 316.87 105.801 316.87 105.525C316.87 105.249 317.094 105.025 317.37 105.025H348.378C348.654 105.025 348.878 105.249 348.878 105.525C348.878 105.801 348.654 106.025 348.378 106.025Z" fill="#072D2D"/>
<path d="M332.283 112.851H317.37C317.094 112.851 316.87 112.627 316.87 112.351C316.87 112.075 317.094 111.851 317.37 111.851H332.283C332.559 111.851 332.783 112.075 332.783 112.351C332.783 112.628 332.559 112.851 332.283 112.851Z" fill="#072D2D"/>
<path d="M311.903 96.993C315.382 96.993 318.201 94.1733 318.201 90.695C318.201 87.2167 315.382 84.397 311.903 84.397C308.425 84.397 305.605 87.2167 305.605 90.695C305.605 94.1733 308.425 96.993 311.903 96.993Z" fill="#CCF381"/>
<path d="M381.841 82.312H371.056C366.03 82.312 361.956 86.386 361.956 91.412V100.175C361.956 102.904 363.163 105.345 365.065 107.013L361.848 115.694L369.646 109.155C370.107 109.227 370.575 109.275 371.056 109.275H381.841C386.867 109.275 390.941 105.201 390.941 100.175V91.412C390.941 86.386 386.867 82.312 381.841 82.312Z" fill="#CCF381"/>
<path d="M383.802 90.36H369.238C368.962 90.36 368.738 90.136 368.738 89.86C368.738 89.584 368.962 89.36 369.238 89.36H383.802C384.078 89.36 384.302 89.584 384.302 89.86C384.302 90.136 384.079 90.36 383.802 90.36Z" fill="#F9F3EF"/>
<path d="M383.802 96.3779H369.238C368.962 96.3779 368.738 96.1539 368.738 95.8779C368.738 95.6019 368.962 95.3779 369.238 95.3779H383.802C384.078 95.3779 384.302 95.6019 384.302 95.8779C384.302 96.1539 384.079 96.3779 383.802 96.3779Z" fill="#F9F3EF"/>
<path d="M383.802 102.395H369.238C368.962 102.395 368.738 102.171 368.738 101.895C368.738 101.619 368.962 101.395 369.238 101.395H383.802C384.078 101.395 384.302 101.619 384.302 101.895C384.302 102.171 384.079 102.395 383.802 102.395Z" fill="#F9F3EF"/>
<path d="M385.15 342.38C375.628 362.339 375.918 393.256 384.326 433.745H419.833C428.242 393.256 428.531 362.339 419.009 342.38C417.48 339.176 415.699 336.215 414.647 333.256C413.648 330.444 413.35 327.555 414.608 325.243C415.664 323.303 417.804 321.527 417.126 319.584H387.032C386.354 321.527 388.494 323.303 389.55 325.243C390.808 327.555 390.511 330.444 389.511 333.256C388.46 336.216 386.679 339.177 385.15 342.38Z" fill="#F9F3EF"/>
<path d="M405.808 328.528C405.62 328.528 405.439 328.42 405.354 328.238C402.175 321.362 399.452 314.639 401.004 307.974C401.53 305.716 402.537 303.604 403.511 301.561C404.438 299.618 405.395 297.608 405.908 295.515C407.466 289.16 405.007 282.62 402.125 275.921C399.609 270.071 396.479 262.791 397.994 255.733C398.698 252.456 400.363 249.394 401.973 246.434C404.305 242.146 406.507 238.096 405.916 233.566C405.644 231.468 404.784 229.551 403.874 227.521C403.343 226.335 402.793 225.109 402.377 223.852C401.211 220.332 401.413 215.838 404.491 213.734C404.718 213.579 405.029 213.636 405.186 213.864C405.341 214.092 405.283 214.403 405.055 214.559C402.407 216.37 402.278 220.373 403.326 223.538C403.726 224.748 404.266 225.95 404.786 227.112C405.685 229.119 406.616 231.194 406.908 233.438C407.541 238.289 405.157 242.673 402.851 246.913C401.275 249.811 399.645 252.808 398.972 255.944C397.522 262.69 400.583 269.807 403.042 275.527C405.994 282.388 408.51 289.098 406.878 295.754C406.341 297.945 405.361 300.002 404.413 301.991C403.462 303.986 402.478 306.049 401.977 308.201C400.496 314.558 403.158 321.107 406.26 327.818C406.375 328.069 406.267 328.366 406.016 328.482C405.95 328.513 405.879 328.528 405.808 328.528Z" fill="#F9F3EF"/>
<path d="M397.109 330.282C397.02 330.282 396.929 330.259 396.848 330.209C396.613 330.065 396.538 329.758 396.682 329.521C399.51 324.889 399.548 318.641 396.776 313.973C396.085 312.81 395.214 311.71 394.374 310.646C393.132 309.073 391.846 307.447 391.059 305.538C389.014 300.581 390.72 295.276 392.371 290.146C392.797 288.822 393.237 287.453 393.597 286.131C395.732 278.269 395.252 269.77 392.246 262.199C391.523 260.377 390.634 258.539 389.773 256.761C387.469 251.999 385.087 247.074 385.5 241.747C385.797 237.904 387.531 234.404 389.208 231.019C389.99 229.44 390.8 227.808 391.446 226.17C391.546 225.912 391.837 225.788 392.094 225.889C392.351 225.99 392.477 226.281 392.375 226.537C391.713 228.214 390.895 229.866 390.104 231.463C388.393 234.914 386.778 238.174 386.496 241.824C386.105 246.883 388.428 251.683 390.674 256.325C391.542 258.119 392.44 259.974 393.176 261.83C396.261 269.6 396.753 278.323 394.562 286.393C394.197 287.737 393.753 289.118 393.324 290.453C391.728 295.411 390.079 300.539 391.984 305.157C392.718 306.936 393.905 308.437 395.161 310.026C396.022 311.116 396.912 312.243 397.638 313.462C400.594 318.44 400.554 325.103 397.538 330.042C397.442 330.197 397.277 330.282 397.109 330.282Z" fill="#F9F3EF"/>
<path d="M409.339 327.996C409.237 327.996 409.135 327.966 409.047 327.901C406.218 325.863 406.061 321.656 407.349 318.733C408.433 316.275 410.31 314.313 412.125 312.417C412.499 312.025 412.872 311.636 413.238 311.242C415.098 309.239 417.256 306.539 417.426 303.411C417.634 299.596 415.046 296.568 412.306 293.364C409.73 290.349 407.065 287.233 406.816 283.325C406.579 279.607 408.597 276.386 410.55 273.269C411.324 272.033 412.126 270.755 412.764 269.476C415.599 263.787 415.535 256.752 412.595 251.117C412.023 250.021 411.33 248.941 410.661 247.897C409.294 245.765 407.88 243.561 407.344 241.016C406.388 236.48 408.387 232.121 410.32 227.906C412.144 223.929 414.03 219.817 413.314 215.676C412.578 211.402 409.249 208.046 405.608 204.701C405.404 204.514 405.391 204.198 405.578 203.995C405.766 203.792 406.083 203.779 406.284 203.965C409.306 206.741 413.444 210.543 414.301 215.506C415.069 219.952 413.117 224.207 411.23 228.322C409.279 232.577 407.436 236.596 408.324 240.81C408.823 243.176 410.126 245.207 411.505 247.358C412.187 248.421 412.891 249.519 413.483 250.655C416.568 256.57 416.636 263.952 413.66 269.922C413.001 271.245 412.186 272.545 411.399 273.801C409.444 276.919 407.598 279.865 407.815 283.261C408.043 286.837 410.597 289.824 413.068 292.714C415.815 295.928 418.655 299.25 418.426 303.466C418.239 306.914 415.948 309.797 413.973 311.922C413.604 312.319 413.227 312.714 412.85 313.108C411.094 314.942 409.279 316.84 408.267 319.136C407.137 321.7 407.232 325.359 409.633 327.09C409.858 327.251 409.908 327.564 409.746 327.787C409.647 327.924 409.495 327.996 409.339 327.996Z" fill="#F9F3EF"/>
<path d="M397.018 331.8C396.867 331.8 396.716 331.732 396.619 331.601C394.237 328.434 394.133 323.779 396.308 317.765C396.513 317.198 396.727 316.627 396.942 316.055C398.357 312.281 399.821 308.379 399.023 304.557C398.388 301.513 396.469 299.051 394.438 296.445C393.603 295.374 392.74 294.266 391.984 293.125C386.792 285.279 386.42 274.509 391.058 266.325C392.055 264.564 393.266 262.917 394.438 261.325C395.409 260.006 396.413 258.641 397.278 257.232C398.838 254.69 400.526 250.88 399.699 247.163C398.916 243.645 396.107 240.955 393.391 238.354C390.474 235.561 387.458 232.672 386.769 228.678C386.263 225.737 387.066 222.536 389.296 218.605C389.743 217.815 390.218 217.037 390.692 216.258C391.969 214.161 393.289 211.993 394.025 209.652C394.869 206.966 394.966 202.978 392.467 200.578C392.268 200.387 392.262 200.07 392.453 199.871C392.644 199.67 392.961 199.667 393.16 199.856C395.989 202.573 395.907 206.992 394.977 209.951C394.206 212.409 392.853 214.63 391.545 216.778C391.076 217.548 390.608 218.318 390.164 219.098C388.055 222.818 387.288 225.807 387.754 228.508C388.386 232.177 391.152 234.827 394.081 237.631C396.904 240.335 399.824 243.131 400.674 246.945C401.386 250.146 400.506 253.883 398.128 257.755C397.241 259.199 396.225 260.581 395.242 261.917C394.088 263.485 392.894 265.107 391.927 266.816C387.469 274.681 387.827 285.032 392.817 292.571C393.551 293.681 394.403 294.773 395.226 295.83C397.238 298.411 399.318 301.081 400 304.351C400.857 308.457 399.342 312.498 397.876 316.405C397.663 316.974 397.45 317.541 397.246 318.104C395.193 323.781 395.251 328.119 397.416 330.999C397.582 331.22 397.538 331.533 397.317 331.699C397.229 331.768 397.123 331.8 397.018 331.8Z" fill="#F9F3EF"/>
<path d="M405.79 331.8C405.639 331.8 405.488 331.732 405.391 331.601C403.009 328.434 402.905 323.779 405.08 317.765C405.284 317.199 405.497 316.631 405.712 316.061C407.128 312.285 408.593 308.381 407.795 304.557C407.16 301.513 405.241 299.051 403.21 296.445C402.375 295.374 401.512 294.266 400.756 293.125C395.564 285.279 395.192 274.509 399.83 266.325C400.827 264.563 402.039 262.917 403.211 261.324C404.182 260.005 405.186 258.64 406.051 257.232C407.612 254.69 409.298 250.879 408.471 247.163C407.688 243.645 404.879 240.956 402.163 238.355C399.247 235.561 396.23 232.672 395.542 228.679C395.035 225.738 395.838 222.537 398.068 218.606C398.515 217.816 398.99 217.038 399.464 216.259C400.741 214.162 402.061 211.994 402.797 209.653C403.641 206.967 403.738 202.979 401.239 200.579C401.04 200.388 401.034 200.071 401.225 199.872C401.416 199.671 401.733 199.668 401.932 199.857C404.761 202.574 404.679 206.993 403.749 209.952C402.978 212.41 401.625 214.631 400.317 216.779C399.848 217.549 399.379 218.319 398.936 219.099C396.827 222.819 396.061 225.809 396.527 228.509C397.159 232.178 399.925 234.828 402.854 237.633C405.676 240.337 408.596 243.133 409.446 246.946C410.158 250.146 409.278 253.884 406.901 257.756C406.014 259.2 404.998 260.581 404.015 261.917C402.861 263.486 401.666 265.108 400.698 266.817C396.241 274.682 396.599 285.033 401.589 292.572C402.323 293.682 403.175 294.774 403.998 295.831C406.01 298.412 408.09 301.082 408.772 304.352C409.629 308.46 408.113 312.502 406.646 316.412C406.433 316.979 406.222 317.544 406.018 318.105C403.965 323.782 404.023 328.12 406.188 331C406.354 331.221 406.31 331.534 406.089 331.7C406.001 331.768 405.894 331.8 405.79 331.8Z" fill="#F9F3EF"/>
<path d="M408.571 203.938C408.571 204.988 407.72 205.839 406.67 205.839C405.62 205.839 404.769 204.988 404.769 203.938C404.769 202.888 405.62 202.037 406.67 202.037C407.72 202.037 408.571 202.888 408.571 203.938Z" fill="#F9F3EF"/>
<path d="M411.547 230.555C411.547 231.605 410.696 232.456 409.646 232.456C408.596 232.456 407.745 231.605 407.745 230.555C407.745 229.505 408.596 228.654 409.646 228.654C410.696 228.654 411.547 229.505 411.547 230.555Z" fill="#F9F3EF"/>
<path d="M416.92 258.577C416.92 259.627 416.069 260.478 415.019 260.478C413.969 260.478 413.118 259.627 413.118 258.577C413.118 257.527 413.969 256.676 415.019 256.676C416.069 256.676 416.92 257.527 416.92 258.577Z" fill="#F9F3EF"/>
<path d="M408.736 279.821C409.786 279.821 410.637 278.97 410.637 277.92C410.637 276.87 409.786 276.019 408.736 276.019C407.686 276.019 406.835 276.87 406.835 277.92C406.835 278.97 407.686 279.821 408.736 279.821Z" fill="#F9F3EF"/>
<path d="M404.686 275.936C404.686 276.986 403.835 277.837 402.785 277.837C401.735 277.837 400.884 276.986 400.884 275.936C400.884 274.886 401.735 274.035 402.785 274.035C403.835 274.035 404.686 274.886 404.686 275.936Z" fill="#F9F3EF"/>
<path d="M403.611 247.252C404.661 247.252 405.512 246.401 405.512 245.351C405.512 244.301 404.661 243.45 403.611 243.45C402.561 243.45 401.71 244.301 401.71 245.351C401.71 246.401 402.561 247.252 403.611 247.252Z" fill="#F9F3EF"/>
<path d="M405.76 215.841C406.81 215.841 407.661 214.99 407.661 213.94C407.661 212.89 406.81 212.039 405.76 212.039C404.71 212.039 403.859 212.89 403.859 213.94C403.859 214.99 404.71 215.841 405.76 215.841Z" fill="#F9F3EF"/>
<path d="M401.627 202.036C402.677 202.036 403.528 201.185 403.528 200.135C403.528 199.085 402.677 198.234 401.627 198.234C400.577 198.234 399.726 199.085 399.726 200.135C399.726 201.185 400.577 202.036 401.627 202.036Z" fill="#F9F3EF"/>
<path d="M394.932 199.226C394.932 200.276 394.081 201.127 393.031 201.127C391.981 201.127 391.13 200.276 391.13 199.226C391.13 198.176 391.981 197.325 393.031 197.325C394.081 197.325 394.932 198.176 394.932 199.226Z" fill="#F9F3EF"/>
<path d="M392.329 227.67C393.379 227.67 394.23 226.819 394.23 225.769C394.23 224.719 393.379 223.868 392.329 223.868C391.279 223.868 390.428 224.719 390.428 225.769C390.428 226.819 391.279 227.67 392.329 227.67Z" fill="#F9F3EF"/>
<path d="M388.815 237.581C388.815 238.631 387.964 239.482 386.914 239.482C385.864 239.482 385.013 238.631 385.013 237.581C385.013 236.531 385.864 235.68 386.914 235.68C387.964 235.68 388.815 236.531 388.815 237.581Z" fill="#F9F3EF"/>
<path d="M393.113 259.073C393.113 260.123 392.262 260.974 391.212 260.974C390.162 260.974 389.311 260.123 389.311 259.073C389.311 258.023 390.162 257.172 391.212 257.172C392.262 257.172 393.113 258.023 393.113 259.073Z" fill="#F9F3EF"/>
<path d="M390.716 300.156C391.766 300.156 392.617 299.305 392.617 298.255C392.617 297.205 391.766 296.354 390.716 296.354C389.666 296.354 388.815 297.205 388.815 298.255C388.815 299.305 389.666 300.156 390.716 300.156Z" fill="#F9F3EF"/>
<path d="M390.964 273.125C390.964 274.175 390.113 275.026 389.063 275.026C388.013 275.026 387.162 274.175 387.162 273.125C387.162 272.075 388.013 271.224 389.063 271.224C390.113 271.224 390.964 272.076 390.964 273.125Z" fill="#F9F3EF"/>
<path d="M407.579 303.793C408.629 303.793 409.48 302.942 409.48 301.892C409.48 300.842 408.629 299.991 407.579 299.991C406.529 299.991 405.678 300.842 405.678 301.892C405.678 302.942 406.529 303.793 407.579 303.793Z" fill="#F9F3EF"/>
<path d="M413.117 313.96C414.167 313.96 415.018 313.109 415.018 312.059C415.018 311.009 414.167 310.158 413.117 310.158C412.067 310.158 411.216 311.009 411.216 312.059C411.216 313.109 412.067 313.96 413.117 313.96Z" fill="#F9F3EF"/>
<path d="M372.298 240.266H360.837L358.535 211.466H374.6L372.298 240.266Z" fill="#072D2D"/>
<path d="M376.853 210.878H356.282V213.082H376.853V210.878Z" fill="#F9F3EF"/>
<path d="M375.339 212.274C375.387 211.9 375.42 211.522 375.42 211.135C375.42 206.246 371.456 202.282 366.567 202.282C361.678 202.282 357.714 206.246 357.714 211.135C357.714 211.522 357.747 211.9 357.795 212.274H375.339Z" fill="#F9F3EF"/>
<path d="M367.334 210.964H366.334V200.812L360.05 192.607L360.845 191.998L367.334 200.473V210.964Z" fill="#4831D4"/>
<path d="M359.427 210.917C359.399 210.917 359.371 210.915 359.343 210.91C359.071 210.864 358.887 210.606 358.933 210.334C359.297 208.17 360.497 206.227 362.225 205.003C363.935 203.789 366.158 203.342 368.172 203.807C368.442 203.869 368.609 204.137 368.547 204.407C368.484 204.677 368.22 204.844 367.947 204.782C366.208 204.381 364.285 204.768 362.802 205.819C361.313 206.876 360.234 208.626 359.918 210.501C359.879 210.745 359.667 210.917 359.427 210.917Z" fill="#072D2D"/>
<path d="M344.283 239.542H307.546L323.771 185.186H360.509L344.283 239.542Z" fill="#8C794C"/>
<path d="M344.149 236.918H265.426V240.292H344.149V236.918Z" fill="#8C794C"/>
<path d="M343.129 212.101C342.379 214.806 340.44 216.999 338.798 216.999C337.156 216.999 336.432 214.806 337.181 212.101C337.931 209.396 339.87 207.203 341.512 207.203C343.155 207.203 343.879 209.396 343.129 212.101Z" fill="#F9F3EF"/>
<path d="M306.743 237.18H269.83C269.554 237.18 269.33 236.956 269.33 236.68C269.33 236.404 269.554 236.18 269.83 236.18H306.743C307.019 236.18 307.243 236.404 307.243 236.68C307.243 236.956 307.019 237.18 306.743 237.18Z" fill="#072D2D"/>
<path d="M445.293 436.295H65.6799C64.8509 436.295 64.1799 435.623 64.1799 434.795C64.1799 433.967 64.8509 433.295 65.6799 433.295H445.292C446.12 433.295 446.792 433.967 446.792 434.795C446.793 435.623 446.121 436.295 445.293 436.295Z" fill="#072D2D"/>
<path d="M210.734 404.715C211.596 410.209 213.884 415.473 217.314 419.85C212.77 420.122 208.267 421.059 203.992 422.622C202.598 418.027 200.673 413.594 198.268 409.438C202.423 407.865 206.578 406.29 210.734 404.715Z" fill="#F9F3EF"/>
<path d="M238.516 433.57C238.874 432.718 239.406 430.444 236.068 428.497C231.869 426.048 222.187 421.264 219.449 418.526C219.099 418.176 216.485 415.43 214.726 413.453C208.804 413.811 208.778 416.602 203.53 416.777L201.081 416.602C199.138 422.587 201.469 427.707 202.478 433.571H238.516V433.57Z" fill="#072D2D"/>
<path d="M201.518 433.964V430.815L238.78 431.952V433.964" fill="#4831D4"/>
<path d="M187.436 337.53C176.052 318.316 161.522 302.727 143.992 288.889L137.15 280.917C126.083 278.984 114.375 280.95 104.546 286.392C100.191 288.803 96.0192 292.109 94.2082 296.746C92.0182 302.353 93.7372 308.808 96.7902 313.996C102.989 324.531 116.4 325.268 127.257 330.883C138.114 336.498 143.351 342.079 160.495 353.975C177.639 365.871 192.048 392.383 196.642 406.701C203.074 405.487 209.803 403.297 215.455 399.457C209.303 387.212 205.629 377.766 199.332 362.022C198.424 359.751 194.677 352.499 194.084 350.126C191.984 341.729 188.928 340.048 187.436 337.53Z" fill="#072D2D"/>
<path d="M208.331 405.071C208.155 405.071 207.983 404.977 207.893 404.812L188.634 369.83C186.97 366.807 185.249 363.682 183.94 360.405C183.451 359.181 182.581 358.252 181.552 357.856C180.589 357.485 179.787 356.768 179.351 355.889C179.127 355.437 178.996 354.942 178.96 354.417C178.794 351.959 177.816 349.836 176.204 348.439C160.186 334.561 142.159 323.397 122.622 315.257C122.367 315.151 122.247 314.858 122.353 314.603C122.46 314.348 122.752 314.232 123.007 314.333C142.642 322.515 160.761 333.735 176.859 347.683C178.673 349.255 179.774 351.623 179.958 354.35C179.984 354.742 180.082 355.111 180.247 355.445C180.572 356.101 181.179 356.64 181.911 356.922C183.218 357.425 184.267 358.53 184.868 360.033C186.154 363.252 187.86 366.35 189.509 369.346L208.768 404.328C208.901 404.57 208.813 404.874 208.571 405.008C208.495 405.051 208.413 405.071 208.331 405.071Z" fill="#8C794C"/>
<path d="M194.921 406.698C195.84 409.564 196.76 412.43 197.679 415.295C205.758 414.128 213.188 411.386 219.274 406.892C218.455 404.017 217.635 401.142 216.816 398.267C210.239 402.736 202.407 405.285 194.921 406.698Z" fill="#4831D4"/>
<path d="M163.538 417.798C162.145 416.814 160.345 416.685 158.645 416.546C148.086 415.684 137.665 413.156 127.885 409.083C125.757 408.197 123.645 407.191 121.863 405.743H121.082V332.63H115.743V405.743H114.515C112.733 407.192 110.62 408.197 108.493 409.083C98.7132 413.156 88.2922 415.684 77.7332 416.546C76.0332 416.685 74.2332 416.814 72.8402 417.798C71.6842 418.615 71.0272 420.251 71.4922 421.502H164.885C165.351 420.252 164.694 418.615 163.538 417.798Z" fill="#072D2D"/>
<path d="M73.0281 434.62C76.365 434.62 79.0701 431.915 79.0701 428.578C79.0701 425.241 76.365 422.536 73.0281 422.536C69.6912 422.536 66.9861 425.241 66.9861 428.578C66.9861 431.915 69.6912 434.62 73.0281 434.62Z" fill="#8C794C"/>
<path d="M109.617 428.388C109.617 431.725 106.912 434.43 103.575 434.43C100.238 434.43 97.5332 431.725 97.5332 428.388C97.5332 425.051 100.238 422.346 103.575 422.346C106.912 422.346 109.617 425.051 109.617 428.388Z" fill="#8C794C"/>
<path d="M162.725 422.346H158.846V434.28H162.725V422.346Z" fill="#8C794C"/>
<path d="M168.543 422.346H164.664V434.28H168.543V422.346Z" fill="#8C794C"/>
<path d="M153.861 304.925C136.228 303.414 118.749 309.634 101.054 309.303C96.5972 309.22 92.1362 308.72 87.6892 309.037C83.2422 309.353 78.6952 310.575 75.3242 313.493C71.9532 316.411 70.0432 321.289 71.5232 325.495C73.5772 331.335 80.6152 333.444 86.7072 334.55C99.0822 336.796 111.691 338.264 124.233 337.317C136.775 336.37 149.306 332.906 159.772 325.931C164.09 323.053 168.431 318.544 167.455 313.448C166.914 310.621 164.745 308.303 162.192 306.972C159.639 305.64 156.729 305.171 153.861 304.925Z" fill="#072D2D"/>
<path d="M153.861 301.251C136.228 299.74 118.749 305.96 101.054 305.629C96.5972 305.546 92.1362 305.047 87.6892 305.363C83.2422 305.679 78.6952 306.901 75.3242 309.819C71.9532 312.737 70.0432 317.616 71.5232 321.821C73.5772 327.661 80.6152 329.77 86.7072 330.876C99.0822 333.122 111.691 334.59 124.233 333.643C136.775 332.696 149.306 329.233 159.772 322.257C164.09 319.379 168.431 314.87 167.455 309.774C166.914 306.947 164.745 304.629 162.192 303.298C159.639 301.966 156.729 301.497 153.861 301.251Z" fill="#8C794C"/>
<path d="M110.266 328.531C105.292 328.531 100.076 328.08 94.6642 327.179C90.8382 326.543 86.3802 325.616 82.3292 323.559C78.0652 321.393 74.8352 318.175 73.2332 314.496C73.1232 314.243 73.2392 313.948 73.4922 313.839C73.7462 313.729 74.0402 313.845 74.1502 314.098C75.6592 317.563 78.7242 320.607 82.7822 322.666C86.7112 324.662 91.0762 325.568 94.8272 326.192C104.14 327.743 112.86 327.947 120.743 326.799C129.775 325.485 138.081 322.316 144.765 317.632C144.991 317.473 145.303 317.529 145.462 317.754C145.62 317.981 145.566 318.292 145.34 318.45C138.529 323.223 130.073 326.453 120.887 327.789C117.492 328.284 113.945 328.531 110.266 328.531Z" fill="#072D2D"/>
<path d="M190.302 317.331L190.53 324.024C195.075 323.139 199.757 323.108 204.292 322.167C208.826 321.227 213.412 319.175 215.959 315.308C218.305 311.746 218.564 307.25 218.733 302.989C219.628 280.403 220.027 257.798 219.929 235.194C219.917 232.337 216.746 230.643 214.342 232.187C212.856 233.141 211.591 234.49 210.729 236.029C208.901 239.287 208.634 243.221 209.113 246.926C209.593 250.631 210.764 254.206 211.665 257.832C215.027 271.368 214.597 285.527 213.904 299.458C213.679 303.981 213.312 308.825 210.496 312.372C208.246 315.206 204.703 316.776 201.131 317.359C197.557 317.939 193.908 317.636 190.302 317.331Z" fill="#072D2D"/>
<path d="M215.351 239.505C216.167 239.505 216.829 238.843 216.829 238.027C216.829 237.211 216.167 236.549 215.351 236.549C214.535 236.549 213.873 237.211 213.873 238.027C213.873 238.843 214.535 239.505 215.351 239.505Z" fill="#8C794C"/>
<path d="M216.526 243.03C216.526 243.846 215.864 244.508 215.048 244.508C214.232 244.508 213.57 243.846 213.57 243.03C213.57 242.214 214.232 241.552 215.048 241.552C215.864 241.551 216.526 242.213 216.526 243.03Z" fill="#8C794C"/>
<path d="M128.142 361.504C126.365 357.816 124.588 354.128 122.811 350.439C118.202 353.178 113.268 355.365 108.149 356.958C112.346 360.417 115.474 364.425 119.386 368.319C121.311 365.526 125.072 363.036 128.142 361.504Z" fill="#F9F3EF"/>
<path d="M120.26 367.996C116.348 364.102 112.346 360.416 108.149 356.958C106.284 357.538 104.396 358.045 102.488 358.463C100.767 358.84 99.0052 359.16 97.4342 359.958C95.8632 360.756 94.4752 362.131 94.1512 363.863C93.7842 365.822 94.8132 367.749 95.8792 369.433C101.339 378.064 108.805 385.588 112.31 395.181C112.827 396.597 113.56 398.306 115.061 398.442C116.499 398.572 117.551 397.11 118.044 395.753C120.877 387.95 115.824 378.924 118.64 371.115C119.04 370 119.594 368.962 120.26 367.996Z" fill="#072D2D"/>
<path d="M209.232 304.119C207.805 298.38 204.276 293.814 197.813 293.28C164.286 290.513 130.669 288.826 97.0341 288.222C95.5591 288.196 94.0541 288.175 92.6491 288.621C88.9801 289.785 86.9731 293.769 86.2271 297.545C83.6931 310.368 92.5671 324.387 105.24 327.584C112.973 329.535 121.105 327.825 128.891 326.096C147.399 321.987 154.693 319.915 173.617 318.768C153.229 326.004 144.891 333.214 126.397 344.438C127.67 351.193 130.669 357.787 134.982 363.375C152.098 353.514 169.903 344.85 188.239 337.5C194.72 334.902 202.188 332.078 206.128 325.913C209.442 320.727 211.058 311.463 209.232 304.119Z" fill="#072D2D"/>
<path d="M193.347 315.359C192.936 314.655 192.652 313.567 192.615 312.923C192.58 312.313 192.636 312.204 192.773 311.943C192.876 311.747 193.016 311.477 193.161 310.993C193.654 309.34 193.389 307.883 192.451 307.095C191.66 306.431 190.615 306.4 189.621 306.391C177.567 306.483 165.452 308.318 153.736 310.092C145.067 311.405 136.102 312.763 127.234 313.402C122.675 313.733 117.478 313.859 113.495 311.173C110.042 308.846 107.808 304.371 107.518 299.203C107.317 295.611 107.961 292.047 108.792 288.556H107.764C106.943 292.045 106.316 295.617 106.52 299.259C106.827 304.737 109.226 309.5 112.936 312.002C116.979 314.728 122.23 314.766 127.306 314.399C136.213 313.755 145.198 312.395 153.886 311.079C165.567 309.311 177.646 307.48 189.629 307.39C190.435 307.387 191.278 307.414 191.808 307.86C192.731 308.635 192.344 310.236 192.203 310.707C192.086 311.1 191.98 311.302 191.887 311.48C191.688 311.861 191.568 312.137 191.617 312.981C191.66 313.733 191.979 314.999 192.484 315.864C192.514 315.916 192.5 315.957 192.412 316.026L191.306 316.108C190.828 316.144 190.393 316.386 190.113 316.773C189.838 317.152 189.744 317.628 189.855 318.081C190.044 318.852 189.728 319.829 189.135 320.305C188.206 321.049 186.958 321.209 185.636 321.378C185.34 321.416 185.046 321.453 184.755 321.498C181.443 322.007 178.467 323.494 175.197 325.24C157.453 334.721 140.242 345.57 124.041 357.485C123.819 357.648 123.771 357.962 123.935 358.183C124.033 358.317 124.185 358.387 124.338 358.387C124.441 358.387 124.545 358.356 124.634 358.289C140.796 346.403 157.967 335.58 175.669 326.122C178.857 324.419 181.751 322.971 184.907 322.485C185.189 322.442 185.475 322.405 185.763 322.369C187.164 322.189 188.613 322.004 189.761 321.084C190.662 320.362 191.111 318.998 190.827 317.842C190.786 317.674 190.82 317.503 190.923 317.361C191.031 317.213 191.198 317.12 191.382 317.106L192.487 317.024C192.867 316.996 193.199 316.779 193.376 316.443C193.554 316.1 193.544 315.696 193.347 315.359Z" fill="#8C794C"/>
<path d="M117.33 348.026C118.244 356.298 121.262 363.226 126.252 369.543C129.11 367.817 133.106 366.099 136 364.432C131.058 358.029 127.62 350.472 126.162 342.732C124.099 343.985 119.368 346.734 117.33 348.026Z" fill="#4831D4"/>
<path d="M92.1881 367.363C97.1851 377.299 107.078 384.357 110.972 394.775C111.396 395.909 111.782 397.131 112.699 397.922C113.616 398.713 115.274 398.779 115.863 397.722C112.382 393.461 110.579 388.099 107.721 383.397C105.458 379.674 102.548 376.388 100.11 372.778C97.6721 369.167 95.6701 365.067 95.5851 360.711C94.6721 361.09 93.7471 361.475 92.9661 362.081C92.1851 362.686 91.5511 363.549 91.4391 364.531C91.3281 365.515 91.7431 366.478 92.1881 367.363Z" fill="#4831D4"/>
<path d="M211.542 230.118C208.091 229.124 205.95 225.785 204.045 222.741C197.216 211.827 189.414 201.522 180.762 191.988C178.437 189.426 175.977 186.795 174.973 183.484C173.305 177.98 176.103 172.085 179.727 167.619C183.351 163.153 187.897 159.374 190.693 154.348C197.499 158.591 201.372 162.942 206.838 175.223C212.297 187.489 220.472 198.737 222.808 211.959C223.552 216.172 223.782 220.691 221.944 224.555C220.107 228.418 215.653 231.302 211.542 230.118Z" fill="#072D2D"/>
<path d="M204.055 216.544C205.598 207.624 206.104 198.525 205.56 189.489C205.321 185.525 205.072 181.004 207.868 178.183C211.208 174.812 217.302 176.061 220.529 179.54C223.756 183.019 224.828 187.931 225.634 192.607C226.542 197.879 227.274 203.188 227.577 208.529C227.847 213.28 227.759 218.154 226.17 222.64C224.581 227.126 219.181 232.285 214.672 233.806C210.162 235.326 206.602 232.601 204.393 228.385C202.526 224.818 203.369 220.511 204.055 216.544Z" fill="#4831D4"/>
<path d="M219.704 178.574C217.225 175.192 212.489 173.924 208.417 174.926C207.58 175.132 206.722 175.449 206.168 176.109C205.689 176.679 205.498 177.431 205.321 178.155C204.926 179.772 204.528 181.435 204.755 183.084C205.259 186.745 208.765 189.36 212.359 190.219C214.821 190.808 217.684 190.673 219.531 188.941C220.727 187.82 221.324 186.167 221.434 184.532C221.576 182.426 220.952 180.277 219.704 178.574Z" fill="#072D2D"/>
<path d="M176.589 221.06C158.47 239.647 148.84 257.698 148.84 291.112H81.6692C85.4512 273.61 89.3972 251.699 89.2002 234.077C88.9952 215.759 88.8552 197.207 93.2742 179.429C97.6932 161.65 107.238 144.441 122.649 134.535C140.143 123.29 164.205 123.29 181.699 134.534L192.146 139.405C192.995 155.792 204.927 171.014 202.031 187.166C199.492 201.317 186.625 210.765 176.589 221.06Z" fill="#CCF381"/>
<path d="M187.58 136.632C185.515 134.089 182.46 132.594 179.506 131.177C174.406 128.73 168.948 126.22 163.333 126.905C167.537 134.681 169.577 143.405 171.91 151.932C174.243 160.459 177.009 169.09 182.375 176.115C187.843 167.961 190.82 158.159 190.809 148.341C190.804 144.212 190.184 139.839 187.58 136.632Z" fill="#072D2D"/>
<path d="M136.384 292.043L135.387 291.961C137.522 266.202 147.7 241.02 164.045 221.055C182.979 197.927 182.355 188.995 181.409 175.475C181.207 172.586 180.998 169.599 180.946 166.186L181.946 166.17C181.998 169.556 182.206 172.529 182.407 175.404C183.369 189.163 184.005 198.253 164.819 221.688C148.601 241.499 138.503 266.485 136.384 292.043Z" fill="#072D2D"/>
<path d="M209.11 255.055C212.422 250.322 211.736 243.847 212.028 238.385C212.956 221.027 215.539 203.628 219.742 186.732C220.609 183.247 218.286 179.721 214.736 179.179C207.501 178.075 199.418 179.806 193.186 184.95C185.926 190.942 182.417 200.133 179.31 208.744C175.913 218.157 172.516 227.569 169.119 236.982C166.517 244.191 164.011 252.603 167.923 258.134C170.577 261.886 175.545 263.189 180.353 263.671C185.861 264.223 191.658 263.942 197.258 262.053C202.857 260.165 205.607 260.061 209.11 255.055Z" fill="#8C794C"/>
<path d="M178.697 264.453C178.596 264.453 178.494 264.423 178.406 264.359C174.368 261.464 171.914 256.236 171.84 250.372C171.768 244.65 173.816 239.245 175.608 235.175C176.321 233.555 177.093 231.932 177.84 230.362C179.282 227.33 180.773 224.195 181.884 220.983C182.988 217.792 183.772 214.381 184.53 211.082C186.05 204.472 187.621 197.636 191.845 192.212C197.515 184.931 207.975 180.923 219.135 181.754C219.41 181.774 219.617 182.014 219.596 182.29C219.575 182.565 219.343 182.767 219.06 182.752C208.227 181.951 198.099 185.808 192.633 192.827C188.545 198.076 186.999 204.802 185.504 211.307C184.74 214.631 183.95 218.069 182.829 221.311C181.7 224.575 180.197 227.736 178.742 230.792C177.998 232.356 177.229 233.972 176.522 235.579C174.771 239.556 172.77 244.83 172.839 250.36C172.909 255.907 175.208 260.837 178.988 263.547C179.212 263.708 179.264 264.02 179.103 264.244C179.007 264.381 178.853 264.453 178.697 264.453Z" fill="#072D2D"/>
<path d="M217.11 177.485C216.625 175.458 215.478 174.925 213.556 174.118C211.634 173.311 209.486 173.209 207.408 173.375C205.977 173.489 205.108 173.564 203.858 174.271C202.743 174.901 201.23 176.054 200.381 177.026C198.151 178.577 194.427 178.783 192.984 181.011C192.12 182.345 192.162 184.086 192.575 185.62C193.197 184.802 194.098 184.305 195.027 183.832C194.949 184.664 195.089 185.517 195.241 186.346C195.76 189.173 196.279 192 196.798 194.826C196.922 195.503 197.175 196.318 197.849 196.454C198.303 196.545 198.426 196.44 198.676 196.05C198.925 195.66 199.582 194.702 199.66 194.246C200.175 191.221 199.463 185.423 200.968 185.473C201.578 187.012 202.188 188.551 202.798 190.09C203.008 190.62 203.396 191.327 203.957 191.426C204.385 191.502 204.725 191.125 204.963 190.761C205.201 190.397 205.288 189.958 205.37 189.53C205.611 188.28 205.062 186.411 205.302 185.161C205.457 184.356 206.565 184.002 207.374 183.872C208.076 183.759 208.603 184.231 208.844 184.899C209.085 185.567 209.19 186.481 209.489 187.126C209.787 187.771 210.537 188.314 211.186 188.025C211.638 187.824 211.715 187.406 211.862 186.933C212.316 185.465 212.007 184.212 213.305 183.39C214.194 182.828 215.796 181.986 216.585 181.291C217.398 180.574 217.362 178.54 217.11 177.485Z" fill="#F9F3EF"/>
<path d="M159.278 251.852C159.278 251.866 159.283 251.879 159.283 251.893H187.569C187.577 251.824 187.59 251.757 187.59 251.687C187.59 250.662 186.759 249.831 185.734 249.831C185.429 249.831 185.146 249.912 184.892 250.042C184.836 249.257 184.405 248.581 183.77 248.192C183.837 248.017 183.877 247.829 183.877 247.631C183.877 246.758 183.169 246.05 182.296 246.05C181.915 246.05 181.571 246.19 181.298 246.414C180.913 245.335 179.899 244.559 178.693 244.541C178.041 243.667 177.009 243.093 175.835 243.093C174.567 243.093 173.46 243.757 172.826 244.752C172.492 244.511 172.085 244.364 171.642 244.364C170.788 244.364 170.061 244.893 169.762 245.64C169.51 245.206 169.166 244.835 168.745 244.563C168.747 244.531 168.755 244.5 168.755 244.467C168.755 243.442 167.924 242.611 166.899 242.611C165.874 242.611 165.043 243.442 165.043 244.467C165.043 244.566 165.057 244.662 165.072 244.757C164.565 245.163 164.189 245.717 164.007 246.359C163.149 246.522 162.499 247.274 162.499 248.18C162.499 248.327 162.52 248.468 162.552 248.605C162.511 248.603 162.472 248.593 162.43 248.593C162.19 248.593 161.959 248.625 161.735 248.675C161.375 247.898 160.593 247.355 159.681 247.355C158.428 247.355 157.413 248.371 157.413 249.623C157.412 250.739 158.218 251.661 159.278 251.852Z" fill="#F9F3EF"/>
<path d="M183.803 289.335H161.783L157.87 251.418H187.691L183.803 289.335Z" fill="#F9F3EF"/>
<path d="M164.206 289.335H161.783L157.87 251.418H161.152L164.206 289.335Z" fill="#CCF381"/>
<path d="M169.123 289.335H166.7L164.529 251.418H167.81L169.123 289.335Z" fill="#CCF381"/>
<path d="M174.04 289.335H171.617L171.188 251.418H174.469L174.04 289.335Z" fill="#CCF381"/>
<path d="M178.957 289.335H176.534L177.846 251.418H181.127L178.957 289.335Z" fill="#CCF381"/>
<path d="M183.874 289.335H181.451L184.505 251.418H187.786L183.874 289.335Z" fill="#CCF381"/>
<path d="M126.237 173.617C131.679 161.068 139.627 149.176 151.027 140.954C141.555 141.004 132.396 144.972 125.248 150.855C118.101 156.737 112.825 164.429 108.786 172.537C95.5943 199.024 95.4363 231.026 108.364 257.629C112.251 265.628 117.368 273.269 124.533 278.886C131.697 284.503 141.117 287.923 150.345 286.8C133.866 273.405 122.931 254.294 119.001 234.074C115.071 213.853 117.989 192.637 126.237 173.617Z" fill="#072D2D"/>
<path d="M164.049 279.967C165.361 279.267 167.029 279.588 168.279 280.392C169.529 281.196 170.449 282.41 171.335 283.604C172.221 284.797 173.126 286.02 174.359 286.85C176.841 288.521 180.087 288.281 183.019 288.872C183.722 289.014 184.57 289.399 184.549 290.116C184.537 290.529 184.204 290.878 183.822 291.036C183.44 291.194 183.015 291.201 182.602 291.206C179.494 291.239 176.386 291.273 173.278 291.306C170.992 291.331 168.645 291.345 166.505 290.543C163.939 289.582 161.849 287.427 160.967 284.832" fill="#F9F3EF"/>
<path d="M166.783 279.949C167.552 281.854 167.739 283.989 167.311 285.999C166.955 287.67 166.004 289.404 164.364 289.884C163.354 290.179 162.272 289.943 161.253 289.677C158.363 288.923 155.533 287.937 152.801 286.732C155.855 284.562 157.441 280.51 156.671 276.844C159.243 277.81 162.396 275.963 164.771 277.344C165.738 277.906 166.365 278.913 166.783 279.949Z" fill="#072D2D"/>
<path d="M173.039 154.488C174.552 147.25 173.242 138.989 167.893 133.884C162.032 128.291 152.595 127.814 145.12 130.938C137.645 134.061 131.822 140.157 126.881 146.577C110.974 167.244 101.923 193.592 104.144 219.577C106.365 245.562 120.495 270.765 142.769 284.33C146.796 286.782 151.2 288.896 155.908 289.159C156.935 289.216 157.978 289.169 159.008 289.018C163.995 288.285 165.653 281.916 161.852 278.605C151.13 269.266 143.288 256.605 140.056 242.759C136.229 226.363 138.986 208.465 147.863 194.158C156.19 180.736 169.807 169.948 173.039 154.488Z" fill="#4831D4"/>
<path d="M181.87 165.603C177.99 159.183 175.191 140.115 169.812 129.315C182.626 132.793 204.653 141.203 220.835 140.192C220.834 146.819 220.832 153.446 220.831 160.073C209.84 159.689 196.524 157.649 185.95 160.67C185.337 160.845 183.587 164.606 181.87 165.603Z" fill="#F9F3EF"/>
<path d="M248.598 139.9C248.09 137.599 246.283 135.834 244.486 134.309C237.8 128.638 230.019 124.264 221.7 121.498C215.931 130.44 210.5 139.92 208.683 150.406C207.324 158.245 208.327 166.8 212.223 173.595C212.593 173.82 212.961 174.046 213.338 174.264C215.337 175.42 217.481 176.259 219.647 177.04C222.772 173.558 225.609 170.968 228.721 167.493C229.424 166.708 233.163 168.448 233.794 167.58C235.865 164.732 234.848 158.117 237.205 155.509C237.869 154.775 239.422 155.013 240.091 154.276C241.454 152.773 242.828 151.263 244.217 149.744C246.741 146.984 249.404 143.551 248.598 139.9Z" fill="#F9F3EF"/>
<path d="M251.747 142.519C255.497 144.092 260.167 143.137 262.998 140.216C256.442 138.681 251.215 133.872 246.421 129.143C241.627 124.414 236.679 119.418 230.28 117.319C228.657 118.152 227.113 119.214 225.861 120.53C223.524 120.006 221.188 119.483 218.851 118.959C213.889 125.633 210.238 131.466 209.696 139.765C213.468 139.906 217.562 140.573 221.434 140.453C221.131 141.246 220.739 142.005 220.217 142.717C223.695 141.994 227.077 140.814 230.25 139.216C230.469 141.705 232.985 143.383 235.421 143.939C237.857 144.495 240.433 144.32 242.826 145.038C245.724 145.907 248.187 148.126 249.353 150.918C249.744 149.023 250.135 147.128 250.526 145.233C253.26 145.871 256.251 145.312 258.57 143.73C256.264 144.319 253.711 143.867 251.747 142.519Z" fill="#072D2D"/>
<path d="M238.597 154.545C238.481 154.209 238.18 154.049 238.035 153.972L235.277 152.511C235.269 152.507 235.26 152.51 235.252 152.507C230.574 149.177 226.29 145.296 222.523 140.96C222.341 140.752 222.026 140.731 221.817 140.911C221.609 141.092 221.587 141.408 221.768 141.616C225.477 145.884 229.687 149.708 234.27 153.018C232.723 154.564 230.971 156.452 230.402 158.848C230.232 159.566 230.222 160.143 230.373 160.666C230.583 161.389 231.138 161.951 231.79 162.099C231.915 162.127 232.044 162.141 232.172 162.141C233.02 162.141 233.739 161.524 234.207 161.06C235.889 159.391 237.319 157.491 238.459 155.411C238.539 155.264 238.726 154.922 238.597 154.545ZM237.582 154.931C236.489 156.926 235.117 158.749 233.503 160.35C232.885 160.964 232.407 161.218 232.011 161.123C231.714 161.056 231.441 160.76 231.334 160.388C231.233 160.038 231.246 159.622 231.375 159.078C231.9 156.872 233.642 155.051 235.134 153.566L237.567 154.855C237.582 154.863 237.596 154.871 237.609 154.878C237.602 154.894 237.592 154.911 237.582 154.931Z" fill="#072D2D"/>
<path d="M218.772 151.328C217.941 151.328 217.08 150.883 216.552 150.119C216.015 149.342 215.805 148.324 215.926 147.094C216.061 145.721 216.546 144.503 217.329 143.573C218.22 142.514 219.511 141.873 220.782 141.855C222.175 141.853 223.552 142.619 224.156 143.804C224.281 144.05 224.184 144.351 223.938 144.476C223.69 144.602 223.391 144.503 223.266 144.258C222.83 143.404 221.858 142.857 220.797 142.855C219.812 142.868 218.802 143.377 218.096 144.216C217.444 144.992 217.038 146.021 216.923 147.192C216.856 147.872 216.88 148.833 217.377 149.551C217.761 150.108 218.552 150.521 219.214 150.244C219.468 150.14 219.762 150.259 219.868 150.514C219.974 150.769 219.853 151.061 219.598 151.168C219.335 151.276 219.055 151.328 218.772 151.328Z" fill="#072D2D"/>
</g>
<defs>
<clipPath id="clip0_52_2">
<rect width="500" height="500" fill="white"/>
</clipPath>
</defs>
</svg>
